<svg xmlns="http://www.w3.org/2000/svg" viewBox="0 0 400 245" role="img" aria-label="Compleo Advisors">
<title>Compleo Advisors — stacked lockup</title>
<desc>Mark above, wordmark centered below. For square contexts (social, covers, profile images).</desc>

<!-- Mark: centered horizontally at x=200, vertically at y=70, outer R=50 -->
<path d="M 240.65,64.65 A 41,41 0 1 1 205.35,29.35" fill="none" stroke="#4A4A4A" stroke-width="18" stroke-linecap="round"/>
<circle cx="228.99" cy="41.01" r="9" fill="#ED9105"/>

<!-- Wordmark: Compleo (Lexend SemiBold 600, 68px) -->
<g fill="#4A4A4A">
  <path d="M398.33447265625 -10Q321.056396484375 -10 256.3616943359375 16.388916015625Q191.6669921875 42.77783203125 144.1390380859375 91.27783203125Q96.611083984375 139.77783203125 70.7498779296875 206.166748046875Q44.888671875 272.5556640625 44.888671875 351.944580078125Q44.888671875 428.88916015625 72.16650390625 494.3614501953125Q99.4443359375 559.833740234375 148.388916015625 608.6392822265625Q197.33349609375 657.44482421875 263.0281982421875 684.44482421875Q328.722900390625 711.44482421875 406.167724609375 711.44482421875Q456.389892578125 711.44482421875 504.5009765625 697.50048828125Q552.612060546875 683.55615234375 593.27880859375 657.61181640625Q633.945556640625 631.66748046875 662.834716796875 596.278564453125L568.66650390625 491.720947265625Q545.500244140625 516.053955078125 519.889404296875 533.4149169921875Q494.278564453125 550.77587890625 465.72314453125 560.1925048828125Q437.167724609375 569.609130859375 405.389892578125 569.609130859375Q362.2236328125 569.609130859375 324.390625 553.83154296875Q286.5576171875 538.053955078125 258.557861328125 509.33203125Q230.55810546875 480.610107421875 214.502685546875 440.3604736328125Q198.447265625 400.11083984375 198.447265625 350.77783203125Q198.447265625 301.167236328125 214.1971435546875 260.6954345703125Q229.947021484375 220.2236328125 258.835693359375 191.501708984375Q287.724365234375 162.77978515625 328.1407470703125 147.4188232421875Q368.55712890625 132.057861328125 417.89013671875 132.057861328125Q449.723388671875 132.057861328125 479.77880859375 141.057861328125Q509.834228515625 150.057861328125 535.500732421875 166.0855712890625Q561.167236328125 182.11328125 581.44482421875 203.168701171875L654.501708984375 86.388916015625Q630.3349609375 59 589.4737548828125 37.0Q548.612548828125 15 498.7513427734375 2.5Q448.89013671875 -10 398.33447265625 -10Z" transform="translate(51.2320,190.0000) scale(0.068000,-0.068000)"/>
  <path d="M316.945068359375 -10Q236.055908203125 -10 172.6390380859375 25.6944580078125Q109.22216796875 61.388916015625 72.66650390625 123.27783203125Q36.11083984375 185.166748046875 36.11083984375 264.944580078125Q36.11083984375 344.722412109375 72.66650390625 406.611328125Q109.22216796875 468.500244140625 172.6390380859375 504.1947021484375Q236.055908203125 539.88916015625 316.945068359375 539.88916015625Q397.22314453125 539.88916015625 460.445556640625 504.1947021484375Q523.66796875 468.500244140625 560.0291748046875 406.611328125Q596.390380859375 344.722412109375 596.390380859375 264.944580078125Q596.390380859375 185.166748046875 560.0291748046875 123.27783203125Q523.66796875 61.388916015625 460.445556640625 25.6944580078125Q397.22314453125 -10 316.945068359375 -10ZM316.945068359375 113.5576171875Q356.166748046875 113.5576171875 387.1385498046875 133.3629150390625Q418.1103515625 153.168212890625 435.610107421875 187.445556640625Q453.10986328125 221.722900390625 452.498779296875 264.944580078125Q453.10986328125 309.166259765625 435.610107421875 343.443603515625Q418.1103515625 377.720947265625 387.1385498046875 397.220703125Q356.166748046875 416.720458984375 316.945068359375 416.720458984375Q277.33447265625 416.720458984375 246.05712890625 396.9151611328125Q214.77978515625 377.10986328125 197.0855712890625 342.83251953125Q179.391357421875 308.55517578125 180.00244140625 264.944580078125Q179.391357421875 221.722900390625 197.0855712890625 187.445556640625Q214.77978515625 153.168212890625 246.05712890625 133.3629150390625Q277.33447265625 113.5576171875 316.945068359375 113.5576171875Z" transform="translate(97.5840,190.0000) scale(0.068000,-0.068000)"/>
  <path d="M70 0V528.88916015625H206.6689453125L209.7802734375 427.77880859375L189.224609375 423.55712890625Q199.947021484375 449.55712890625 218.224853515625 470.6402587890625Q236.502685546875 491.723388671875 260.6414794921875 506.9176025390625Q284.7802734375 522.11181640625 311.7523193359375 530.389404296875Q338.724365234375 538.6669921875 365.835205078125 538.6669921875Q406.946044921875 538.6669921875 439.779296875 525.8060302734375Q472.612548828125 512.945068359375 495.779296875 485.278564453125Q518.946044921875 457.612060546875 531.66845703125 412.612060546875L509.834716796875 415.4453125L517.2236328125 431.278564453125Q529.779296875 455.4453125 549.8626708984375 474.9730224609375Q569.946044921875 494.500732421875 594.946044921875 508.945068359375Q619.946044921875 523.389404296875 647.168212890625 531.0281982421875Q674.390380859375 538.6669921875 700.2236328125 538.6669921875Q761.946044921875 538.6669921875 802.9739990234375 514.278076171875Q844.001953125 489.88916015625 864.668701171875 441.0836181640625Q885.33544921875 392.278076171875 885.33544921875 320.833740234375V0H742.832763671875V310.5556640625Q742.832763671875 346.610595703125 733.0828857421875 369.8602294921875Q723.3330078125 393.10986328125 704.0277099609375 404.7763671875Q684.722412109375 416.44287109375 655.333984375 416.44287109375Q632.389892578125 416.44287109375 612.556884765625 408.887451171875Q592.723876953125 401.33203125 578.4185791015625 387.443359375Q564.11328125 373.5546875 556.057861328125 355.5272216796875Q548.00244140625 337.499755859375 548.00244140625 315.5556640625V0H405.499755859375V311.77783203125Q405.499755859375 345.388427734375 395.4443359375 368.6380615234375Q385.388916015625 391.8876953125 366.0836181640625 404.165283203125Q346.7783203125 416.44287109375 319.22314453125 416.44287109375Q296.279052734375 416.44287109375 276.7515869140625 408.887451171875Q257.22412109375 401.33203125 242.9188232421875 387.7489013671875Q228.613525390625 374.165771484375 220.55810546875 356.1383056640625Q212.502685546875 338.11083984375 212.502685546875 316.77783203125V0Z" transform="translate(140.1280,190.0000) scale(0.068000,-0.068000)"/>
  <path d="M71.22216796875 -220V528.88916015625H207.89111328125L212.169189453125 409.6669921875L186.4462890625 418.6669921875Q192.835205078125 450.611572265625 220.4462890625 477.9171142578125Q248.057373046875 505.22265625 288.9462890625 521.94482421875Q329.835205078125 538.6669921875 375.168701171875 538.6669921875Q444.22412109375 538.6669921875 497.8629150390625 503.4725341796875Q551.501708984375 468.278076171875 582.5294189453125 406.6947021484375Q613.55712890625 345.111328125 613.55712890625 264.944580078125Q613.55712890625 185.77783203125 582.6405029296875 123.888916015625Q551.723876953125 62 497.6961669921875 26.5Q443.66845703125 -9 375.057373046875 -9Q329.4462890625 -9 287.8074951171875 8.5277099609375Q246.168701171875 26.055419921875 217.33544921875 54.8609619140625Q188.502197265625 83.66650390625 180.724365234375 117L214.11376953125 131V-220ZM342.8896484375 113.22412109375Q382.278076171875 113.22412109375 412.055419921875 132.3349609375Q441.832763671875 151.44580078125 458.7491455078125 185.612060546875Q475.66552734375 219.7783203125 475.66552734375 264.944580078125Q475.66552734375 310.11083984375 459.0546875 344.166015625Q442.44384765625 378.22119140625 412.66650390625 397.33203125Q382.88916015625 416.44287109375 342.8896484375 416.44287109375Q302.89013671875 416.44287109375 272.9183349609375 397.6375732421875Q242.946533203125 378.832275390625 226.0301513671875 344.4715576171875Q209.11376953125 310.11083984375 209.11376953125 264.944580078125Q209.11376953125 219.7783203125 226.0301513671875 185.612060546875Q242.946533203125 151.44580078125 272.9183349609375 132.3349609375Q302.89013671875 113.22412109375 342.8896484375 113.22412109375Z" transform="translate(204.1600,190.0000) scale(0.068000,-0.068000)"/>
  <path d="M72.4443359375 0V740H214.3359375V0Z" transform="translate(247.8600,190.0000) scale(0.068000,-0.068000)"/>
  <path d="M321.6669921875 -10Q236 -10 171.7498779296875 25.0833740234375Q107.499755859375 60.166748046875 71.8052978515625 121.1390380859375Q36.11083984375 182.111328125 36.11083984375 261.278076171875Q36.11083984375 322.500244140625 56.11083984375 373.500244140625Q76.11083984375 424.500244140625 111.999755859375 462.000244140625Q147.888671875 499.500244140625 197.388671875 520.000244140625Q246.888671875 540.500244140625 305.277587890625 540.500244140625Q359.388916015625 540.500244140625 405.1390380859375 520.611328125Q450.88916015625 500.722412109375 484.3614501953125 465.3612060546875Q517.833740234375 430 535.72265625 381.7498779296875Q553.611572265625 333.499755859375 552.22265625 276.55517578125L551.22265625 233.3330078125H126.11181640625L103.11181640625 320.388916015625H434.220703125L417.6650390625 302.22216796875V323.888671875Q415.831787109375 351.44384765625 400.5264892578125 372.9713134765625Q385.22119140625 394.498779296875 360.88818359375 406.7763671875Q336.55517578125 419.053955078125 306.833251953125 419.053955078125Q262.55615234375 419.053955078125 232.167724609375 401.8597412109375Q201.779296875 384.66552734375 186.0850830078125 351.9715576171875Q170.390869140625 319.277587890625 170.390869140625 271.7783203125Q170.390869140625 224.167724609375 190.4739990234375 188.9180908203125Q210.55712890625 153.66845703125 248.0845947265625 134.390869140625Q285.612060546875 115.11328125 336.722900390625 115.11328125Q372.22265625 115.11328125 401.0556640625 125.9742431640625Q429.888671875 136.835205078125 463.054931640625 164.2236328125L531.00048828125 68.66650390625Q501.944580078125 42.721923828125 467.0556640625 25.499755859375Q432.166748046875 8.277587890625 395.222412109375 -0.8612060546875Q358.278076171875 -10 321.6669921875 -10Z" transform="translate(266.8760,190.0000) scale(0.068000,-0.068000)"/>
  <path d="M316.945068359375 -10Q236.055908203125 -10 172.6390380859375 25.6944580078125Q109.22216796875 61.388916015625 72.66650390625 123.27783203125Q36.11083984375 185.166748046875 36.11083984375 264.944580078125Q36.11083984375 344.722412109375 72.66650390625 406.611328125Q109.22216796875 468.500244140625 172.6390380859375 504.1947021484375Q236.055908203125 539.88916015625 316.945068359375 539.88916015625Q397.22314453125 539.88916015625 460.445556640625 504.1947021484375Q523.66796875 468.500244140625 560.0291748046875 406.611328125Q596.390380859375 344.722412109375 596.390380859375 264.944580078125Q596.390380859375 185.166748046875 560.0291748046875 123.27783203125Q523.66796875 61.388916015625 460.445556640625 25.6944580078125Q397.22314453125 -10 316.945068359375 -10ZM316.945068359375 113.5576171875Q356.166748046875 113.5576171875 387.1385498046875 133.3629150390625Q418.1103515625 153.168212890625 435.610107421875 187.445556640625Q453.10986328125 221.722900390625 452.498779296875 264.944580078125Q453.10986328125 309.166259765625 435.610107421875 343.443603515625Q418.1103515625 377.720947265625 387.1385498046875 397.220703125Q356.166748046875 416.720458984375 316.945068359375 416.720458984375Q277.33447265625 416.720458984375 246.05712890625 396.9151611328125Q214.77978515625 377.10986328125 197.0855712890625 342.83251953125Q179.391357421875 308.55517578125 180.00244140625 264.944580078125Q179.391357421875 221.722900390625 197.0855712890625 187.445556640625Q214.77978515625 153.168212890625 246.05712890625 133.3629150390625Q277.33447265625 113.5576171875 316.945068359375 113.5576171875Z" transform="translate(306.2240,190.0000) scale(0.068000,-0.068000)"/>
</g>

<!-- Wordmark: Advisors (Lexend Medium 500, 29px) -->
<g fill="#4A4A4A">
  <path d="M15.83465576171875 0 288.87139892578125 700H411.09185791015625L682.1286010742188 0H546.96484375L396.7412109375 398.373779296875Q392.11181640625 410.261962890625 383.7136535644531 436.24359130859375Q375.31549072265625 462.2252197265625 365.3338623046875 492.4756164550781Q355.35223388671875 522.7260131835938 346.9632568359375 549.2076416015625Q338.57427978515625 575.6892700195312 334.9632568359375 588.373779296875L360.20367431640625 589.1701049804688Q354.20367431640625 569.3186645507812 346.2128601074219 544.0315246582031Q338.2220458984375 518.744384765625 329.33306884765625 491.6792907714844Q320.444091796875 464.61419677734375 311.5459289550781 439.8270568847656Q302.64776611328125 415.0399169921875 295.62939453125 395.1884765625L146.20208740234375 0ZM139.90814208984375 159.7427978515625 184.5926513671875 272.50079345703125H504.01837158203125L552.2587890625 159.7427978515625Z" transform="translate(126.6505,225.0000) scale(0.029000,-0.029000)"/>
  <path d="M284.27874755859375 -10.20367431640625Q213.50079345703125 -10.20367431640625 158.0191650390625 25.29632568359375Q102.53753662109375 60.79632568359375 70.25039672851562 122.5Q37.9632568359375 184.20367431640625 37.9632568359375 263.814697265625Q37.9632568359375 343.2220458984375 69.95407104492188 405.0275573730469Q101.94488525390625 466.83306884765625 157.23202514648438 502.4349060058594Q212.5191650390625 538.0367431640625 282.90814208984375 538.0367431640625Q320.8897705078125 538.0367431640625 356.2695617675781 526.1477661132812Q391.64935302734375 514.2587890625 419.83465576171875 493.573486328125Q448.01995849609375 472.88818359375 464.7236328125 447.7955322265625Q481.42730712890625 422.702880859375 482.64935302734375 396.49920654296875L449.59423828125 392.05511474609375V740H573.1653442382812V0H453.87139892578125L450.61260986328125 123.57427978515625L474.8897705078125 121.7412109375Q473.87139892578125 97.3338623046875 457.667724609375 74.13937377929688Q441.46405029296875 50.94488525390625 415.167724609375 31.75958251953125Q388.87139892578125 12.57427978515625 354.6769104003906 1.185302734375Q320.482421875 -10.20367431640625 284.27874755859375 -10.20367431640625ZM307.8514404296875 94.27557373046875Q351.185302734375 94.27557373046875 384.0283508300781 116.13699340820312Q416.87139892578125 137.9984130859375 435.33465576171875 176.13778686523438Q453.79791259765625 214.27716064453125 453.79791259765625 263.814697265625Q453.79791259765625 313.35223388671875 435.33465576171875 351.59344482421875Q416.87139892578125 389.83465576171875 384.0283508300781 411.59423828125Q351.185302734375 433.35382080078125 307.8514404296875 433.35382080078125Q264.517578125 433.35382080078125 231.7763671875 411.59423828125Q199.03515625 389.83465576171875 180.5718994140625 351.59344482421875Q162.108642578125 313.35223388671875 162.108642578125 263.814697265625Q162.108642578125 214.27716064453125 180.5718994140625 176.13778686523438Q199.03515625 137.9984130859375 231.7763671875 116.13699340820312Q264.517578125 94.27557373046875 307.8514404296875 94.27557373046875Z" transform="translate(149.8925,225.0000) scale(0.029000,-0.029000)"/>
  <path d="M240.53753662109375 0 18.53753662109375 527.0367431640625H152.9600830078125L302.98004150390625 132.814697265625L276.8514404296875 125.64776611328125L435.42730712890625 527.0367431640625H565.8682250976562L332.86822509765625 0Z" transform="translate(171.4815,225.0000) scale(0.029000,-0.029000)"/>
  <path d="M85.7412109375 0V527.0367431640625H209.108642578125V0ZM146.332275390625 639.1669311523438Q109.05511474609375 639.1669311523438 88.50918579101562 657.7963256835938Q67.9632568359375 676.4257202148438 67.9632568359375 710.4808349609375Q67.9632568359375 742.1286010742188 89.00918579101562 761.961669921875Q110.05511474609375 781.7947387695312 146.332275390625 781.7947387695312Q183.60943603515625 781.7947387695312 204.15536499023438 763.1653442382812Q224.7012939453125 744.5359497070312 224.7012939453125 710.4808349609375Q224.7012939453125 678.8330688476562 203.65536499023438 659.0Q182.60943603515625 639.1669311523438 146.332275390625 639.1669311523438Z" transform="translate(191.4175,225.0000) scale(0.029000,-0.029000)"/>
  <path d="M248.2220458984375 -10Q177.94488525390625 -10 122.60263061523438 13.712860107421875Q67.2603759765625 37.42572021484375 32.05670166015625 81.4073486328125L111.83306884765625 149.75799560546875Q142.24041748046875 116.1837158203125 178.96246337890625 101.091064453125Q215.68450927734375 85.9984130859375 257.2220458984375 85.9984130859375Q273.5926513671875 85.9984130859375 287.4632568359375 89.88739013671875Q301.3338623046875 93.7763671875 311.40814208984375 101.65615844726562Q321.482421875 109.53594970703125 326.7695617675781 120.30471801757812Q332.05670166015625 131.073486328125 332.05670166015625 144.24041748046875Q332.05670166015625 168 313.667724609375 182.16693115234375Q303.87139892578125 188.555908203125 282.5750732421875 196.54672241210938Q261.27874755859375 204.53753662109375 227.482421875 213.3338623046875Q173.35223388671875 227.31549072265625 137.26876831054688 245.50079345703125Q101.185302734375 263.68609619140625 80.57427978515625 286.87139892578125Q63.7412109375 306.482421875 55.417327880859375 330.1026306152344Q47.09344482421875 353.72283935546875 47.09344482421875 382.35223388671875Q47.09344482421875 416.98162841796875 62.509979248046875 445.3981628417969Q77.926513671875 473.814697265625 104.95407104492188 494.7220458984375Q131.98162841796875 515.62939453125 167.80551147460938 526.8330688476562Q203.62939453125 538.0367431640625 243.444091796875 538.0367431640625Q282.88818359375 538.0367431640625 320.6102294921875 528.1385803222656Q358.332275390625 518.2404174804688 390.6561584472656 499.5459289550781Q422.98004150390625 480.8514404296875 446.01678466796875 455.2587890625L378.05511474609375 380.0750732421875Q359.46246337890625 398.05670166015625 336.96246337890625 412.2511901855469Q314.46246337890625 426.4456787109375 291.1569519042969 434.5475158691406Q267.8514404296875 442.64935302734375 248.444091796875 442.64935302734375Q229.4808349609375 442.64935302734375 214.41574096679688 439.1585388183594Q199.35064697265625 435.667724609375 189.17453002929688 428.5842590332031Q178.9984130859375 421.50079345703125 173.71127319335938 411.0283508300781Q168.42413330078125 400.555908203125 168.42413330078125 387.38897705078125Q169.220458984375 375.4073486328125 174.61862182617188 364.8238830566406Q180.01678466796875 354.24041748046875 190.220458984375 346.8514404296875Q200.8131103515625 339.6661376953125 222.71127319335938 331.073486328125Q244.60943603515625 322.4808349609375 280.23883056640625 313.6661376953125Q329.220458984375 300.6661376953125 362.1278076171875 284.8606262207031Q395.03515625 269.05511474609375 414.4425048828125 248.444091796875Q433.220458984375 230.05511474609375 441.220458984375 206.073486328125Q449.220458984375 182.09185791015625 449.220458984375 152.72125244140625Q449.220458984375 105.68450927734375 422.4984130859375 68.7587890625Q395.7763671875 31.83306884765625 350.332275390625 10.916534423828125Q304.88818359375 -10 248.2220458984375 -10Z" transform="translate(202.9145,225.0000) scale(0.029000,-0.029000)"/>
  <path d="M312.68450927734375 -10Q233.64776611328125 -10 171.62020874023438 25.601837158203125Q109.5926513671875 61.20367431640625 73.7779541015625 122.9073486328125Q37.9632568359375 184.61102294921875 37.9632568359375 264.01837158203125Q37.9632568359375 343.42572021484375 73.7779541015625 405.12939453125Q109.5926513671875 466.83306884765625 171.62020874023438 502.4349060058594Q233.64776611328125 538.0367431640625 312.68450927734375 538.0367431640625Q390.9249267578125 538.0367431640625 452.85064697265625 502.4349060058594Q514.7763671875 466.83306884765625 550.4892272949219 405.12939453125Q586.2020874023438 343.42572021484375 586.2020874023438 264.01837158203125Q586.2020874023438 184.61102294921875 550.4892272949219 122.9073486328125Q514.7763671875 61.20367431640625 452.85064697265625 25.601837158203125Q390.9249267578125 -10 312.68450927734375 -10ZM312.68450927734375 99.479248046875Q355.61102294921875 99.479248046875 389.4540710449219 121.04434204101562Q423.297119140625 142.60943603515625 442.46405029296875 179.85064697265625Q461.6309814453125 217.09185791015625 460.83465576171875 264.01837158203125Q461.6309814453125 311.94488525390625 442.46405029296875 349.18609619140625Q423.297119140625 386.42730712890625 389.4540710449219 407.59423828125Q355.61102294921875 428.76116943359375 312.68450927734375 428.76116943359375Q269.5543212890625 428.76116943359375 235.3131103515625 407.1960754394531Q201.0718994140625 385.6309814453125 181.80313110351562 348.3897705078125Q162.53436279296875 311.1485595703125 163.3306884765625 264.01837158203125Q162.53436279296875 217.09185791015625 181.80313110351562 179.85064697265625Q201.0718994140625 142.60943603515625 235.3131103515625 121.04434204101562Q269.5543212890625 99.479248046875 312.68450927734375 99.479248046875Z" transform="translate(219.9795,225.0000) scale(0.029000,-0.029000)"/>
  <path d="M71.5926513671875 0V527.0367431640625H192.7012939453125L195.1453857421875 359.38897705078125L178.01678466796875 396.94488525390625Q189.42413330078125 436.57427978515625 216.22964477539062 468.6944885253906Q243.03515625 500.814697265625 278.55352783203125 519.4257202148438Q314.0718994140625 538.0367431640625 352.7012939453125 538.0367431640625Q369.90496826171875 538.0367431640625 385.5068054199219 535.1385803222656Q401.108642578125 532.2404174804688 411.3306884765625 528.2404174804688L378.42413330078125 393.2252197265625Q366.83148193359375 398.632568359375 350.90576171875 402.6417541503906Q334.98004150390625 406.65093994140625 318.7396240234375 406.65093994140625Q293.57269287109375 406.65093994140625 271.10943603515625 397.1693115234375Q248.64617919921875 387.68768310546875 231.979248046875 370.7152404785156Q215.31231689453125 353.7427978515625 205.53436279296875 331.1777038574219Q195.75640869140625 308.61260986328125 195.75640869140625 281.4456787109375V0Z" transform="translate(241.0755,225.0000) scale(0.029000,-0.029000)"/>
  <path d="M248.2220458984375 -10Q177.94488525390625 -10 122.60263061523438 13.712860107421875Q67.2603759765625 37.42572021484375 32.05670166015625 81.4073486328125L111.83306884765625 149.75799560546875Q142.24041748046875 116.1837158203125 178.96246337890625 101.091064453125Q215.68450927734375 85.9984130859375 257.2220458984375 85.9984130859375Q273.5926513671875 85.9984130859375 287.4632568359375 89.88739013671875Q301.3338623046875 93.7763671875 311.40814208984375 101.65615844726562Q321.482421875 109.53594970703125 326.7695617675781 120.30471801757812Q332.05670166015625 131.073486328125 332.05670166015625 144.24041748046875Q332.05670166015625 168 313.667724609375 182.16693115234375Q303.87139892578125 188.555908203125 282.5750732421875 196.54672241210938Q261.27874755859375 204.53753662109375 227.482421875 213.3338623046875Q173.35223388671875 227.31549072265625 137.26876831054688 245.50079345703125Q101.185302734375 263.68609619140625 80.57427978515625 286.87139892578125Q63.7412109375 306.482421875 55.417327880859375 330.1026306152344Q47.09344482421875 353.72283935546875 47.09344482421875 382.35223388671875Q47.09344482421875 416.98162841796875 62.509979248046875 445.3981628417969Q77.926513671875 473.814697265625 104.95407104492188 494.7220458984375Q131.98162841796875 515.62939453125 167.80551147460938 526.8330688476562Q203.62939453125 538.0367431640625 243.444091796875 538.0367431640625Q282.88818359375 538.0367431640625 320.6102294921875 528.1385803222656Q358.332275390625 518.2404174804688 390.6561584472656 499.5459289550781Q422.98004150390625 480.8514404296875 446.01678466796875 455.2587890625L378.05511474609375 380.0750732421875Q359.46246337890625 398.05670166015625 336.96246337890625 412.2511901855469Q314.46246337890625 426.4456787109375 291.1569519042969 434.5475158691406Q267.8514404296875 442.64935302734375 248.444091796875 442.64935302734375Q229.4808349609375 442.64935302734375 214.41574096679688 439.1585388183594Q199.35064697265625 435.667724609375 189.17453002929688 428.5842590332031Q178.9984130859375 421.50079345703125 173.71127319335938 411.0283508300781Q168.42413330078125 400.555908203125 168.42413330078125 387.38897705078125Q169.220458984375 375.4073486328125 174.61862182617188 364.8238830566406Q180.01678466796875 354.24041748046875 190.220458984375 346.8514404296875Q200.8131103515625 339.6661376953125 222.71127319335938 331.073486328125Q244.60943603515625 322.4808349609375 280.23883056640625 313.6661376953125Q329.220458984375 300.6661376953125 362.1278076171875 284.8606262207031Q395.03515625 269.05511474609375 414.4425048828125 248.444091796875Q433.220458984375 230.05511474609375 441.220458984375 206.073486328125Q449.220458984375 182.09185791015625 449.220458984375 152.72125244140625Q449.220458984375 105.68450927734375 422.4984130859375 68.7587890625Q395.7763671875 31.83306884765625 350.332275390625 10.916534423828125Q304.88818359375 -10 248.2220458984375 -10Z" transform="translate(256.2845,225.0000) scale(0.029000,-0.029000)"/>
</g>
</svg>
